<svg width="210" height="117" viewBox="0 0 210 117" fill="none" xmlns="http://www.w3.org/2000/svg">
<g filter="url(#filter0_d_970_96)">
<path fill-rule="evenodd" clip-rule="evenodd" d="M173.22 48.2013L152.968 69.9603L144.601 64.0173L138.345 56.3199L160.105 36.1516L152.276 56.3421L173.22 48.2013Z" fill="#406A2F"/>
</g>
<g filter="url(#filter1_d_970_96)">
<path d="M187.909 86.2349L148.369 85.1051L154.394 117.49L167.574 114.101L187.909 86.2349Z" fill="#406A2F"/>
</g>
<g filter="url(#filter2_d_970_96)">
<path d="M120.328 21.4515L122.847 60.8946L90.3008 55.9565L93.221 42.6835L120.328 21.4515Z" fill="#406A2F"/>
</g>
<g filter="url(#filter3_d_970_96)">
<path d="M40.2173 108.823L45.842 140.258L10.7564 138.039L40.2173 108.823Z" fill="#406A2F"/>
</g>
<g filter="url(#filter4_d_970_96)">
<path fill-rule="evenodd" clip-rule="evenodd" d="M173.021 48.4036L169.458 42.1757L165.287 43.3344L165.076 43.5451L166.069 39.9895L159.854 36.4082L150.631 57.9907L150.63 57.9918L150.63 57.9914L150.63 57.9917L150.631 57.9913L173.021 48.4036Z" fill="#406A2F"/>
</g>
<g filter="url(#filter5_d_970_96)">
<path d="M140.084 54.9796L146.067 62.5564L154.389 68.5412L148.267 85.2413L122.664 61.1359L140.084 54.9796Z" fill="#406A2F"/>
</g>
<g filter="url(#filter6_d_970_96)">
<path fill-rule="evenodd" clip-rule="evenodd" d="M155.11 120.427L148.794 84.7769L135.762 72.2125L135.537 72.4452L122.978 60.2808L87.1616 55.1611L55.2163 72.0657L39.344 104.538L45.6073 140.174L58.6106 152.768L58.6894 152.687L71.4549 164.994L107.312 170.004L139.265 152.98L155.11 120.427Z" fill="#185E00"/>
</g>
<g filter="url(#filter7_d_970_96)">
<line x1="123.203" y1="60.4857" x2="109.646" y2="86.0926" stroke="#0A2900"/>
<line x1="109.558" y1="85.5051" x2="125.374" y2="101.321" stroke="#0A2900"/>
<line x1="109.883" y1="85.5998" x2="85.0293" y2="81.8341" stroke="#0A2900"/>
<line x1="87.1085" y1="55.7755" x2="84.8491" y2="82.1356" stroke="#0A2900"/>
<line x1="62.9206" y1="102.815" x2="85.5149" y2="81.7274" stroke="#0A2900"/>
<line x1="62.556" y1="102.926" x2="39.2085" y2="105.185" stroke="#0A2900"/>
<path d="M63.0405 102.444L66.2734 114.478L62.2873 127.297" stroke="#0A2900"/>
<line x1="125.492" y1="100.508" x2="148.84" y2="84.6916" stroke="#0A2900"/>
<line x1="125.517" y1="100.113" x2="127.777" y2="120.448" stroke="#0A2900"/>
<path d="M101.006 100.25L109.713 109.274L107.742 121.658L96.552 128.091L84.5857 123.705L80.8498 111.831L88.1488 101.383L101.006 100.25Z" stroke="#0A2900"/>
<line x1="109.707" y1="108.773" x2="124.016" y2="100.489" stroke="#0A2900"/>
<line x1="80.662" y1="111.96" x2="66.3522" y2="114.219" stroke="#0A2900"/>
<line x1="88.375" y1="101.751" x2="85.3624" y2="82.169" stroke="#0A2900"/>
<line x1="101.245" y1="100.664" x2="110.283" y2="85.6013" stroke="#0A2900"/>
</g>
<defs>
<filter id="filter0_d_970_96" x="134.345" y="29.1516" width="42.876" height="41.8087" filterUnits="userSpaceOnUse" color-interpolation-filters="sRGB">
<feFlood flood-opacity="0" result="BackgroundImageFix"/>
<feColorMatrix in="SourceAlpha" type="matrix" values="0 0 0 0 0 0 0 0 0 0 0 0 0 0 0 0 0 0 127 0" result="hardAlpha"/>
<feOffset dy="-3"/>
<feGaussianBlur stdDeviation="2"/>
<feComposite in2="hardAlpha" operator="out"/>
<feColorMatrix type="matrix" values="0 0 0 0 0 0 0 0 0 0 0 0 0 0 0 0 0 0 0.5 0"/>
<feBlend mode="normal" in2="BackgroundImageFix" result="effect1_dropShadow_970_96"/>
<feBlend mode="normal" in="SourceGraphic" in2="effect1_dropShadow_970_96" result="shape"/>
</filter>
<filter id="filter1_d_970_96" x="144.369" y="78.1052" width="47.54" height="40.3852" filterUnits="userSpaceOnUse" color-interpolation-filters="sRGB">
<feFlood flood-opacity="0" result="BackgroundImageFix"/>
<feColorMatrix in="SourceAlpha" type="matrix" values="0 0 0 0 0 0 0 0 0 0 0 0 0 0 0 0 0 0 127 0" result="hardAlpha"/>
<feOffset dy="-3"/>
<feGaussianBlur stdDeviation="2"/>
<feComposite in2="hardAlpha" operator="out"/>
<feColorMatrix type="matrix" values="0 0 0 0 0 0 0 0 0 0 0 0 0 0 0 0 0 0 0.5 0"/>
<feBlend mode="normal" in2="BackgroundImageFix" result="effect1_dropShadow_970_96"/>
<feBlend mode="normal" in="SourceGraphic" in2="effect1_dropShadow_970_96" result="shape"/>
</filter>
<filter id="filter2_d_970_96" x="86.3008" y="14.4515" width="40.5469" height="47.4431" filterUnits="userSpaceOnUse" color-interpolation-filters="sRGB">
<feFlood flood-opacity="0" result="BackgroundImageFix"/>
<feColorMatrix in="SourceAlpha" type="matrix" values="0 0 0 0 0 0 0 0 0 0 0 0 0 0 0 0 0 0 127 0" result="hardAlpha"/>
<feOffset dy="-3"/>
<feGaussianBlur stdDeviation="2"/>
<feComposite in2="hardAlpha" operator="out"/>
<feColorMatrix type="matrix" values="0 0 0 0 0 0 0 0 0 0 0 0 0 0 0 0 0 0 0.5 0"/>
<feBlend mode="normal" in2="BackgroundImageFix" result="effect1_dropShadow_970_96"/>
<feBlend mode="normal" in="SourceGraphic" in2="effect1_dropShadow_970_96" result="shape"/>
</filter>
<filter id="filter3_d_970_96" x="6.75684" y="106.823" width="43.085" height="39.4341" filterUnits="userSpaceOnUse" color-interpolation-filters="sRGB">
<feFlood flood-opacity="0" result="BackgroundImageFix"/>
<feColorMatrix in="SourceAlpha" type="matrix" values="0 0 0 0 0 0 0 0 0 0 0 0 0 0 0 0 0 0 127 0" result="hardAlpha"/>
<feOffset dy="2"/>
<feGaussianBlur stdDeviation="2"/>
<feComposite in2="hardAlpha" operator="out"/>
<feColorMatrix type="matrix" values="0 0 0 0 0 0 0 0 0 0 0 0 0 0 0 0 0 0 0.5 0"/>
<feBlend mode="normal" in2="BackgroundImageFix" result="effect1_dropShadow_970_96"/>
<feBlend mode="normal" in="SourceGraphic" in2="effect1_dropShadow_970_96" result="shape"/>
</filter>
<filter id="filter4_d_970_96" x="146.63" y="32.4082" width="30.3916" height="29.5836" filterUnits="userSpaceOnUse" color-interpolation-filters="sRGB">
<feFlood flood-opacity="0" result="BackgroundImageFix"/>
<feColorMatrix in="SourceAlpha" type="matrix" values="0 0 0 0 0 0 0 0 0 0 0 0 0 0 0 0 0 0 127 0" result="hardAlpha"/>
<feOffset/>
<feGaussianBlur stdDeviation="2"/>
<feComposite in2="hardAlpha" operator="out"/>
<feColorMatrix type="matrix" values="0 0 0 0 0 0 0 0 0 0 0 0 0 0 0 0 0 0 0.5 0"/>
<feBlend mode="normal" in2="BackgroundImageFix" result="effect1_dropShadow_970_96"/>
<feBlend mode="normal" in="SourceGraphic" in2="effect1_dropShadow_970_96" result="shape"/>
</filter>
<filter id="filter5_d_970_96" x="118.664" y="47.9797" width="39.7256" height="38.2616" filterUnits="userSpaceOnUse" color-interpolation-filters="sRGB">
<feFlood flood-opacity="0" result="BackgroundImageFix"/>
<feColorMatrix in="SourceAlpha" type="matrix" values="0 0 0 0 0 0 0 0 0 0 0 0 0 0 0 0 0 0 127 0" result="hardAlpha"/>
<feOffset dy="-3"/>
<feGaussianBlur stdDeviation="2"/>
<feComposite in2="hardAlpha" operator="out"/>
<feColorMatrix type="matrix" values="0 0 0 0 0 0 0 0 0 0 0 0 0 0 0 0 0 0 0.5 0"/>
<feBlend mode="normal" in2="BackgroundImageFix" result="effect1_dropShadow_970_96"/>
<feBlend mode="normal" in="SourceGraphic" in2="effect1_dropShadow_970_96" result="shape"/>
</filter>
<filter id="filter6_d_970_96" x="33.3438" y="49.1611" width="127.766" height="126.843" filterUnits="userSpaceOnUse" color-interpolation-filters="sRGB">
<feFlood flood-opacity="0" result="BackgroundImageFix"/>
<feColorMatrix in="SourceAlpha" type="matrix" values="0 0 0 0 0 0 0 0 0 0 0 0 0 0 0 0 0 0 127 0" result="hardAlpha"/>
<feOffset/>
<feGaussianBlur stdDeviation="3"/>
<feComposite in2="hardAlpha" operator="out"/>
<feColorMatrix type="matrix" values="0 0 0 0 0 0 0 0 0 0 0 0 0 0 0 0 0 0 1 0"/>
<feBlend mode="normal" in2="BackgroundImageFix" result="effect1_dropShadow_970_96"/>
<feBlend mode="normal" in="SourceGraphic" in2="effect1_dropShadow_970_96" result="shape"/>
</filter>
<filter id="filter7_d_970_96" x="38.1602" y="55.7328" width="117.232" height="115.131" filterUnits="userSpaceOnUse" color-interpolation-filters="sRGB">
<feFlood flood-opacity="0" result="BackgroundImageFix"/>
<feColorMatrix in="SourceAlpha" type="matrix" values="0 0 0 0 0 0 0 0 0 0 0 0 0 0 0 0 0 0 127 0" result="hardAlpha"/>
<feOffset dy="1"/>
<feGaussianBlur stdDeviation="0.5"/>
<feComposite in2="hardAlpha" operator="out"/>
<feColorMatrix type="matrix" values="0 0 0 0 0 0 0 0 0 0 0 0 0 0 0 0 0 0 0.59 0"/>
<feBlend mode="normal" in2="BackgroundImageFix" result="effect1_dropShadow_970_96"/>
<feBlend mode="normal" in="SourceGraphic" in2="effect1_dropShadow_970_96" result="shape"/>
</filter>
</defs>
</svg>
